<svg viewBox="0 0 44 39" xmlns="http://www.w3.org/2000/svg" xmlns:xlink="http://www.w3.org/1999/xlink" width="44.000000" height="39.000000" fill="none">
	<rect id="logo" width="44.000000" height="39.000000" x="0.000000" y="0.000000" fill="rgb(255,255,255)" fill-opacity="0" />
	<g id="g8">
		<path id="path170" d="M1.37232 0L0 0L0 1.3913L1.37232 1.3913L1.37232 0Z" fill="rgb(235.875,217.098,121.125)" fill-rule="nonzero" transform="matrix(1,0,0,-1,42.5686,38.9565)" />
		<path id="path172" d="M1.37232 0L0 0L0 1.3913L1.37232 1.3913L1.37232 0Z" fill="rgb(235.875,217.098,121.125)" fill-rule="nonzero" transform="matrix(1,0,0,-1,41.1963,38.9565)" />
		<path id="path174" d="M1.37232 0L0 0L0 1.3913L1.37232 1.3913L1.37232 0Z" fill="rgb(235.875,217.098,121.125)" fill-rule="nonzero" transform="matrix(1,0,0,-1,35.707,38.9565)" />
		<path id="path176" d="M1.37232 0L0 0L0 1.3913L1.37232 1.3913L1.37232 0Z" fill="rgb(235.875,217.098,121.125)" fill-rule="nonzero" transform="matrix(1,0,0,-1,34.3347,38.9565)" />
		<path id="path178" d="M1.37232 0L0 0L0 1.3913L1.37232 1.3913L1.37232 0Z" fill="rgb(235.875,217.098,121.125)" fill-rule="nonzero" transform="matrix(1,0,0,-1,32.9624,38.9565)" />
		<path id="path180" d="M1.37232 0L0 0L0 1.3913L1.37232 1.3913L1.37232 0Z" fill="rgb(235.875,217.098,121.125)" fill-rule="nonzero" transform="matrix(1,0,0,-1,24.7285,38.9565)" />
		<path id="path182" d="M1.37232 0L0 0L0 1.3913L1.37232 1.3913L1.37232 0Z" fill="rgb(235.875,217.098,121.125)" fill-rule="nonzero" transform="matrix(1,0,0,-1,16.4949,38.9565)" />
		<path id="path184" d="M1.37232 0L0 0L0 1.3913L1.37232 1.3913L1.37232 0Z" fill="rgb(235.875,217.098,121.125)" fill-rule="nonzero" transform="matrix(1,0,0,-1,8.26099,38.9565)" />
		<path id="path186" d="M1.37232 0L0 0L0 1.3913L1.37232 1.3913L1.37232 0Z" fill="rgb(235.875,217.098,121.125)" fill-rule="nonzero" transform="matrix(1,0,0,-1,6.88867,38.9565)" />
		<path id="path188" d="M1.37232 0L0 0L0 1.3913L1.37232 1.3913L1.37232 0Z" fill="rgb(235.875,217.098,121.125)" fill-rule="nonzero" transform="matrix(1,0,0,-1,5.51636,38.9565)" />
		<path id="path190" d="M1.37232 0L0 0L0 1.3913L1.37232 1.3913L1.37232 0Z" fill="rgb(235.875,217.098,121.125)" fill-rule="nonzero" transform="matrix(1,0,0,-1,0.0270996,38.9565)" />
		<path id="path192" d="M1.37232 0L0 0L0 1.3913L1.37232 1.3913L1.37232 0Z" fill="rgb(235.875,217.098,121.125)" fill-rule="nonzero" transform="matrix(1,0,0,-1,42.5686,37.5652)" />
		<path id="path194" d="M1.37232 0L0 0L0 1.3913L1.37232 1.3913L1.37232 0Z" fill="rgb(235.875,217.098,121.125)" fill-rule="nonzero" transform="matrix(1,0,0,-1,37.0793,37.5652)" />
		<path id="path196" d="M1.37232 0L0 0L0 1.3913L1.37232 1.3913L1.37232 0Z" fill="rgb(235.875,217.098,121.125)" fill-rule="nonzero" transform="matrix(1,0,0,-1,35.707,37.5652)" />
		<path id="path198" d="M1.37232 0L0 0L0 1.3913L1.37232 1.3913L1.37232 0Z" fill="rgb(235.875,217.098,121.125)" fill-rule="nonzero" transform="matrix(1,0,0,-1,34.3347,37.5652)" />
		<path id="path200" d="M1.37232 0L0 0L0 1.3913L1.37232 1.3913L1.37232 0Z" fill="rgb(235.875,217.098,121.125)" fill-rule="nonzero" transform="matrix(1,0,0,-1,24.7285,37.5652)" />
		<path id="path202" d="M1.37232 0L0 0L0 1.3913L1.37232 1.3913L1.37232 0Z" fill="rgb(235.875,217.098,121.125)" fill-rule="nonzero" transform="matrix(1,0,0,-1,23.3562,37.5652)" />
		<path id="path204" d="M1.37232 0L0 0L0 1.3913L1.37232 1.3913L1.37232 0Z" fill="rgb(235.875,217.098,121.125)" fill-rule="nonzero" transform="matrix(1,0,0,-1,17.8672,37.5652)" />
		<path id="path206" d="M1.37232 0L0 0L0 1.3913L1.37232 1.3913L1.37232 0Z" fill="rgb(235.875,217.098,121.125)" fill-rule="nonzero" transform="matrix(1,0,0,-1,16.4949,37.5652)" />
		<path id="path208" d="M1.37232 0L0 0L0 1.3913L1.37232 1.3913L1.37232 0Z" fill="rgb(235.875,217.098,121.125)" fill-rule="nonzero" transform="matrix(1,0,0,-1,6.88867,37.5652)" />
		<path id="path210" d="M1.37232 0L0 0L0 1.3913L1.37232 1.3913L1.37232 0Z" fill="rgb(235.875,217.098,121.125)" fill-rule="nonzero" transform="matrix(1,0,0,-1,5.51636,37.5652)" />
		<path id="path212" d="M1.37232 0L0 0L0 1.3913L1.37232 1.3913L1.37232 0Z" fill="rgb(235.875,217.098,121.125)" fill-rule="nonzero" transform="matrix(1,0,0,-1,4.14404,37.5652)" />
		<path id="path214" d="M1.37232 0L0 0L0 1.3913L1.37232 1.3913L1.37232 0Z" fill="rgb(235.875,217.098,121.125)" fill-rule="nonzero" transform="matrix(1,0,0,-1,38.4517,36.1739)" />
		<path id="path216" d="M1.37232 0L0 0L0 1.3913L1.37232 1.3913L1.37232 0Z" fill="rgb(235.875,217.098,121.125)" fill-rule="nonzero" transform="matrix(1,0,0,-1,37.0793,36.1739)" />
		<path id="path218" d="M1.37232 0L0 0L0 1.3913L1.37232 1.3913L1.37232 0Z" fill="rgb(235.875,217.098,121.125)" fill-rule="nonzero" transform="matrix(1,0,0,-1,35.707,36.1739)" />
		<path id="path220" d="M1.37232 0L0 0L0 1.3913L1.37232 1.3913L1.37232 0Z" fill="rgb(235.875,217.098,121.125)" fill-rule="nonzero" transform="matrix(1,0,0,-1,24.7285,36.1739)" />
		<path id="path222" d="M1.37232 0L0 0L0 1.3913L1.37232 1.3913L1.37232 0Z" fill="rgb(235.875,217.098,121.125)" fill-rule="nonzero" transform="matrix(1,0,0,-1,23.3562,36.1739)" />
		<path id="path224" d="M1.37232 0L0 0L0 1.3913L1.37232 1.3913L1.37232 0Z" fill="rgb(235.875,217.098,121.125)" fill-rule="nonzero" transform="matrix(1,0,0,-1,21.9839,36.1739)" />
		<path id="path226" d="M1.37232 0L0 0L0 1.3913L1.37232 1.3913L1.37232 0Z" fill="rgb(235.875,217.098,121.125)" fill-rule="nonzero" transform="matrix(1,0,0,-1,19.2395,36.1739)" />
		<path id="path228" d="M1.37232 0L0 0L0 1.3913L1.37232 1.3913L1.37232 0Z" fill="rgb(235.875,217.098,121.125)" fill-rule="nonzero" transform="matrix(1,0,0,-1,17.8672,36.1739)" />
		<path id="path230" d="M1.37232 0L0 0L0 1.3913L1.37232 1.3913L1.37232 0Z" fill="rgb(235.875,217.098,121.125)" fill-rule="nonzero" transform="matrix(1,0,0,-1,16.4949,36.1739)" />
		<path id="path232" d="M1.37232 0L0 0L0 1.3913L1.37232 1.3913L1.37232 0Z" fill="rgb(235.875,217.098,121.125)" fill-rule="nonzero" transform="matrix(1,0,0,-1,5.51636,36.1739)" />
		<path id="path234" d="M1.37232 0L0 0L0 1.3913L1.37232 1.3913L1.37232 0Z" fill="rgb(235.875,217.098,121.125)" fill-rule="nonzero" transform="matrix(1,0,0,-1,4.14404,36.1739)" />
		<path id="path236" d="M1.37232 0L0 0L0 1.3913L1.37232 1.3913L1.37232 0Z" fill="rgb(235.875,217.098,121.125)" fill-rule="nonzero" transform="matrix(1,0,0,-1,2.77173,36.1739)" />
		<path id="path238" d="M1.37232 0L0 0L0 1.3913L1.37232 1.3913L1.37232 0Z" fill="rgb(235.875,217.098,121.125)" fill-rule="nonzero" transform="matrix(1,0,0,-1,39.824,34.7826)" />
		<path id="path240" d="M1.37232 0L0 0L0 1.3913L1.37232 1.3913L1.37232 0Z" fill="rgb(235.875,217.098,121.125)" fill-rule="nonzero" transform="matrix(1,0,0,-1,38.4517,34.7826)" />
		<path id="path242" d="M1.37232 0L0 0L0 1.3913L1.37232 1.3913L1.37232 0Z" fill="rgb(235.875,217.098,121.125)" fill-rule="nonzero" transform="matrix(1,0,0,-1,37.0793,34.7826)" />
		<path id="path244" d="M1.37232 0L0 0L0 1.3913L1.37232 1.3913L1.37232 0Z" fill="rgb(235.875,217.098,121.125)" fill-rule="nonzero" transform="matrix(1,0,0,-1,30.2178,34.7826)" />
		<path id="path246" d="M1.37232 0L0 0L0 1.3913L1.37232 1.3913L1.37232 0Z" fill="rgb(235.875,217.098,121.125)" fill-rule="nonzero" transform="matrix(1,0,0,-1,28.8455,34.7826)" />
		<path id="path248" d="M1.37232 0L0 0L0 1.3913L1.37232 1.3913L1.37232 0Z" fill="rgb(235.875,217.098,121.125)" fill-rule="nonzero" transform="matrix(1,0,0,-1,27.4731,34.7826)" />
		<path id="path250" d="M1.37232 0L0 0L0 1.3913L1.37232 1.3913L1.37232 0Z" fill="rgb(235.875,217.098,121.125)" fill-rule="nonzero" transform="matrix(1,0,0,-1,23.3562,34.7826)" />
		<path id="path252" d="M1.37232 0L0 0L0 1.3913L1.37232 1.3913L1.37232 0Z" fill="rgb(235.875,217.098,121.125)" fill-rule="nonzero" transform="matrix(1,0,0,-1,21.9839,34.7826)" />
		<path id="path254" d="M1.37232 0L0 0L0 1.3913L1.37232 1.3913L1.37232 0Z" fill="rgb(235.875,217.098,121.125)" fill-rule="nonzero" transform="matrix(1,0,0,-1,19.2395,34.7826)" />
		<path id="path256" d="M1.37232 0L0 0L0 1.3913L1.37232 1.3913L1.37232 0Z" fill="rgb(235.875,217.098,121.125)" fill-rule="nonzero" transform="matrix(1,0,0,-1,17.8672,34.7826)" />
		<path id="path258" d="M1.37232 0L0 0L0 1.3913L1.37232 1.3913L1.37232 0Z" fill="rgb(235.875,217.098,121.125)" fill-rule="nonzero" transform="matrix(1,0,0,-1,13.7502,34.7826)" />
		<path id="path260" d="M1.37232 0L0 0L0 1.3913L1.37232 1.3913L1.37232 0Z" fill="rgb(235.875,217.098,121.125)" fill-rule="nonzero" transform="matrix(1,0,0,-1,12.3779,34.7826)" />
		<path id="path262" d="M1.37232 0L0 0L0 1.3913L1.37232 1.3913L1.37232 0Z" fill="rgb(235.875,217.098,121.125)" fill-rule="nonzero" transform="matrix(1,0,0,-1,11.0056,34.7826)" />
		<path id="path264" d="M1.37232 0L0 0L0 1.3913L1.37232 1.3913L1.37232 0Z" fill="rgb(235.875,217.098,121.125)" fill-rule="nonzero" transform="matrix(1,0,0,-1,4.14404,34.7826)" />
		<path id="path266" d="M1.37232 0L0 0L0 1.3913L1.37232 1.3913L1.37232 0Z" fill="rgb(235.875,217.098,121.125)" fill-rule="nonzero" transform="matrix(1,0,0,-1,2.77173,34.7826)" />
		<path id="path268" d="M1.37232 0L0 0L0 1.3913L1.37232 1.3913L1.37232 0Z" fill="rgb(235.875,217.098,121.125)" fill-rule="nonzero" transform="matrix(1,0,0,-1,1.39941,34.7826)" />
		<path id="path270" d="M1.37232 0L0 0L0 1.3913L1.37232 1.3913L1.37232 0Z" fill="rgb(235.875,217.098,121.125)" fill-rule="nonzero" transform="matrix(1,0,0,-1,41.1963,33.3913)" />
		<path id="path272" d="M1.37232 0L0 0L0 1.3913L1.37232 1.3913L1.37232 0Z" fill="rgb(235.875,217.098,121.125)" fill-rule="nonzero" transform="matrix(1,0,0,-1,39.824,33.3913)" />
		<path id="path274" d="M1.37232 0L0 0L0 1.3913L1.37232 1.3913L1.37232 0Z" fill="rgb(235.875,217.098,121.125)" fill-rule="nonzero" transform="matrix(1,0,0,-1,38.4517,33.3913)" />
		<path id="path276" d="M1.37232 0L0 0L0 1.3913L1.37232 1.3913L1.37232 0Z" fill="rgb(235.875,217.098,121.125)" fill-rule="nonzero" transform="matrix(1,0,0,-1,28.8455,33.3913)" />
		<path id="path278" d="M1.37232 0L0 0L0 1.3913L1.37232 1.3913L1.37232 0Z" fill="rgb(235.875,217.098,121.125)" fill-rule="nonzero" transform="matrix(1,0,0,-1,27.4731,33.3913)" />
		<path id="path280" d="M1.37232 0L0 0L0 1.3913L1.37232 1.3913L1.37232 0Z" fill="rgb(235.875,217.098,121.125)" fill-rule="nonzero" transform="matrix(1,0,0,-1,26.1008,33.3913)" />
		<path id="path282" d="M1.37232 0L0 0L0 1.3913L1.37232 1.3913L1.37232 0Z" fill="rgb(235.875,217.098,121.125)" fill-rule="nonzero" transform="matrix(1,0,0,-1,21.9839,33.3913)" />
		<path id="path284" d="M1.37232 0L0 0L0 1.3913L1.37232 1.3913L1.37232 0Z" fill="rgb(235.875,217.098,121.125)" fill-rule="nonzero" transform="matrix(1,0,0,-1,19.2395,33.3913)" />
		<path id="path286" d="M1.37232 0L0 0L0 1.3913L1.37232 1.3913L1.37232 0Z" fill="rgb(235.875,217.098,121.125)" fill-rule="nonzero" transform="matrix(1,0,0,-1,15.1226,33.3913)" />
		<path id="path288" d="M1.37232 0L0 0L0 1.3913L1.37232 1.3913L1.37232 0Z" fill="rgb(235.875,217.098,121.125)" fill-rule="nonzero" transform="matrix(1,0,0,-1,13.7502,33.3913)" />
		<path id="path290" d="M1.37232 0L0 0L0 1.3913L1.37232 1.3913L1.37232 0Z" fill="rgb(235.875,217.098,121.125)" fill-rule="nonzero" transform="matrix(1,0,0,-1,12.3779,33.3913)" />
		<path id="path292" d="M1.37232 0L0 0L0 1.3913L1.37232 1.3913L1.37232 0Z" fill="rgb(235.875,217.098,121.125)" fill-rule="nonzero" transform="matrix(1,0,0,-1,2.77173,33.3913)" />
		<path id="path294" d="M1.37232 0L0 0L0 1.3913L1.37232 1.3913L1.37232 0Z" fill="rgb(235.875,217.098,121.125)" fill-rule="nonzero" transform="matrix(1,0,0,-1,1.39941,33.3913)" />
		<path id="path296" d="M1.37232 0L0 0L0 1.3913L1.37232 1.3913L1.37232 0Z" fill="rgb(235.875,217.098,121.125)" fill-rule="nonzero" transform="matrix(1,0,0,-1,0.0270996,33.3913)" />
		<path id="path298" d="M1.37232 0L0 0L0 1.3913L1.37232 1.3913L1.37232 0Z" fill="rgb(235.875,217.098,121.125)" fill-rule="nonzero" transform="matrix(1,0,0,-1,41.1963,32)" />
		<path id="path300" d="M1.37232 0L0 0L0 1.3913L1.37232 1.3913L1.37232 0Z" fill="rgb(235.875,217.098,121.125)" fill-rule="nonzero" transform="matrix(1,0,0,-1,39.824,32)" />
		<path id="path302" d="M1.37232 0L0 0L0 1.3913L1.37232 1.3913L1.37232 0Z" fill="rgb(235.875,217.098,121.125)" fill-rule="nonzero" transform="matrix(1,0,0,-1,27.4731,32)" />
		<path id="path304" d="M1.37232 0L0 0L0 1.3913L1.37232 1.3913L1.37232 0Z" fill="rgb(235.875,217.098,121.125)" fill-rule="nonzero" transform="matrix(1,0,0,-1,26.1008,32)" />
		<path id="path306" d="M1.37232 0L0 0L0 1.3913L1.37232 1.3913L1.37232 0Z" fill="rgb(235.875,217.098,121.125)" fill-rule="nonzero" transform="matrix(1,0,0,-1,24.7285,32)" />
		<path id="path308" d="M1.37232 0L0 0L0 1.3913L1.37232 1.3913L1.37232 0Z" fill="rgb(235.875,217.098,121.125)" fill-rule="nonzero" transform="matrix(1,0,0,-1,16.4949,32)" />
		<path id="path310" d="M1.37232 0L0 0L0 1.3913L1.37232 1.3913L1.37232 0Z" fill="rgb(235.875,217.098,121.125)" fill-rule="nonzero" transform="matrix(1,0,0,-1,15.1226,32)" />
		<path id="path312" d="M1.37232 0L0 0L0 1.3913L1.37232 1.3913L1.37232 0Z" fill="rgb(235.875,217.098,121.125)" fill-rule="nonzero" transform="matrix(1,0,0,-1,13.7502,32)" />
		<path id="path314" d="M1.37232 0L0 0L0 1.3913L1.37232 1.3913L1.37232 0Z" fill="rgb(235.875,217.098,121.125)" fill-rule="nonzero" transform="matrix(1,0,0,-1,1.39941,32)" />
		<path id="path316" d="M1.37232 0L0 0L0 1.3913L1.37232 1.3913L1.37232 0Z" fill="rgb(235.875,217.098,121.125)" fill-rule="nonzero" transform="matrix(1,0,0,-1,0.0270996,32)" />
		<path id="path318" d="M1.37232 0L0 0L0 1.3913L1.37232 1.3913L1.37232 0Z" fill="rgb(235.875,217.098,121.125)" fill-rule="nonzero" transform="matrix(1,0,0,-1,41.1963,30.6087)" />
		<path id="path320" d="M1.37232 0L0 0L0 1.3913L1.37232 1.3913L1.37232 0Z" fill="rgb(235.875,217.098,121.125)" fill-rule="nonzero" transform="matrix(1,0,0,-1,34.3347,30.6087)" />
		<path id="path322" d="M1.37232 0L0 0L0 1.3913L1.37232 1.3913L1.37232 0Z" fill="rgb(235.875,217.098,121.125)" fill-rule="nonzero" transform="matrix(1,0,0,-1,21.9839,30.6087)" />
		<path id="path324" d="M1.37232 0L0 0L0 1.3913L1.37232 1.3913L1.37232 0Z" fill="rgb(235.875,217.098,121.125)" fill-rule="nonzero" transform="matrix(1,0,0,-1,19.2395,30.6087)" />
		<path id="path326" d="M1.37232 0L0 0L0 1.3913L1.37232 1.3913L1.37232 0Z" fill="rgb(235.875,217.098,121.125)" fill-rule="nonzero" transform="matrix(1,0,0,-1,6.88867,30.6087)" />
		<path id="path328" d="M1.37232 0L0 0L0 1.3913L1.37232 1.3913L1.37232 0Z" fill="rgb(235.875,217.098,121.125)" fill-rule="nonzero" transform="matrix(1,0,0,-1,0.0270996,30.6087)" />
		<path id="path330" d="M1.37232 0L0 0L0 1.3913L1.37232 1.3913L1.37232 0Z" fill="rgb(235.875,217.098,121.125)" fill-rule="nonzero" transform="matrix(1,0,0,-1,34.3347,29.2174)" />
		<path id="path332" d="M1.37232 0L0 0L0 1.3913L1.37232 1.3913L1.37232 0Z" fill="rgb(235.875,217.098,121.125)" fill-rule="nonzero" transform="matrix(1,0,0,-1,32.9624,29.2174)" />
		<path id="path334" d="M1.37232 0L0 0L0 1.3913L1.37232 1.3913L1.37232 0Z" fill="rgb(235.875,217.098,121.125)" fill-rule="nonzero" transform="matrix(1,0,0,-1,23.3562,29.2174)" />
		<path id="path336" d="M1.37232 0L0 0L0 1.3913L1.37232 1.3913L1.37232 0Z" fill="rgb(235.875,217.098,121.125)" fill-rule="nonzero" transform="matrix(1,0,0,-1,21.9839,29.2174)" />
		<path id="path338" d="M1.37232 0L0 0L0 1.3913L1.37232 1.3913L1.37232 0Z" fill="rgb(235.875,217.098,121.125)" fill-rule="nonzero" transform="matrix(1,0,0,-1,19.2395,29.2174)" />
		<path id="path340" d="M1.37232 0L0 0L0 1.3913L1.37232 1.3913L1.37232 0Z" fill="rgb(235.875,217.098,121.125)" fill-rule="nonzero" transform="matrix(1,0,0,-1,17.8672,29.2174)" />
		<path id="path342" d="M1.37232 0L0 0L0 1.3913L1.37232 1.3913L1.37232 0Z" fill="rgb(235.875,217.098,121.125)" fill-rule="nonzero" transform="matrix(1,0,0,-1,8.26099,29.2174)" />
		<path id="path344" d="M1.37232 0L0 0L0 1.3913L1.37232 1.3913L1.37232 0Z" fill="rgb(235.875,217.098,121.125)" fill-rule="nonzero" transform="matrix(1,0,0,-1,6.88867,29.2174)" />
		<path id="path346" d="M1.37232 0L0 0L0 1.3913L1.37232 1.3913L1.37232 0Z" fill="rgb(235.875,217.098,121.125)" fill-rule="nonzero" transform="matrix(1,0,0,-1,34.3347,27.8261)" />
		<path id="path348" d="M1.37232 0L0 0L0 1.3913L1.37232 1.3913L1.37232 0Z" fill="rgb(235.875,217.098,121.125)" fill-rule="nonzero" transform="matrix(1,0,0,-1,32.9624,27.8261)" />
		<path id="path350" d="M1.37232 0L0 0L0 1.3913L1.37232 1.3913L1.37232 0Z" fill="rgb(235.875,217.098,121.125)" fill-rule="nonzero" transform="matrix(1,0,0,-1,31.5901,27.8261)" />
		<path id="path352" d="M1.37232 0L0 0L0 1.3913L1.37232 1.3913L1.37232 0Z" fill="rgb(235.875,217.098,121.125)" fill-rule="nonzero" transform="matrix(1,0,0,-1,24.7285,27.8261)" />
		<path id="path354" d="M1.37232 0L0 0L0 1.3913L1.37232 1.3913L1.37232 0Z" fill="rgb(235.875,217.098,121.125)" fill-rule="nonzero" transform="matrix(1,0,0,-1,23.3562,27.8261)" />
		<path id="path356" d="M1.37232 0L0 0L0 1.3913L1.37232 1.3913L1.37232 0Z" fill="rgb(235.875,217.098,121.125)" fill-rule="nonzero" transform="matrix(1,0,0,-1,17.8672,27.8261)" />
		<path id="path358" d="M1.37232 0L0 0L0 1.3913L1.37232 1.3913L1.37232 0Z" fill="rgb(235.875,217.098,121.125)" fill-rule="nonzero" transform="matrix(1,0,0,-1,16.4949,27.8261)" />
		<path id="path360" d="M1.37232 0L0 0L0 1.3913L1.37232 1.3913L1.37232 0Z" fill="rgb(235.875,217.098,121.125)" fill-rule="nonzero" transform="matrix(1,0,0,-1,9.6333,27.8261)" />
		<path id="path362" d="M1.37232 0L0 0L0 1.3913L1.37232 1.3913L1.37232 0Z" fill="rgb(235.875,217.098,121.125)" fill-rule="nonzero" transform="matrix(1,0,0,-1,8.26099,27.8261)" />
		<path id="path364" d="M1.37232 0L0 0L0 1.3913L1.37232 1.3913L1.37232 0Z" fill="rgb(235.875,217.098,121.125)" fill-rule="nonzero" transform="matrix(1,0,0,-1,6.88867,27.8261)" />
		<path id="path366" d="M1.37232 0L0 0L0 1.3913L1.37232 1.3913L1.37232 0Z" fill="rgb(235.875,217.098,121.125)" fill-rule="nonzero" transform="matrix(1,0,0,-1,32.9624,26.4348)" />
		<path id="path368" d="M1.37232 0L0 0L0 1.3913L1.37232 1.3913L1.37232 0Z" fill="rgb(235.875,217.098,121.125)" fill-rule="nonzero" transform="matrix(1,0,0,-1,31.5901,26.4348)" />
		<path id="path370" d="M1.37232 0L0 0L0 1.3913L1.37232 1.3913L1.37232 0Z" fill="rgb(235.875,217.098,121.125)" fill-rule="nonzero" transform="matrix(1,0,0,-1,26.1008,26.4348)" />
		<path id="path372" d="M1.37232 0L0 0L0 1.3913L1.37232 1.3913L1.37232 0Z" fill="rgb(235.875,217.098,121.125)" fill-rule="nonzero" transform="matrix(1,0,0,-1,24.7285,26.4348)" />
		<path id="path374" d="M1.37232 0L0 0L0 1.3913L1.37232 1.3913L1.37232 0Z" fill="rgb(235.875,217.098,121.125)" fill-rule="nonzero" transform="matrix(1,0,0,-1,16.4949,26.4348)" />
		<path id="path376" d="M1.37232 0L0 0L0 1.3913L1.37232 1.3913L1.37232 0Z" fill="rgb(235.875,217.098,121.125)" fill-rule="nonzero" transform="matrix(1,0,0,-1,15.1226,26.4348)" />
		<path id="path378" d="M1.37232 0L0 0L0 1.3913L1.37232 1.3913L1.37232 0Z" fill="rgb(235.875,217.098,121.125)" fill-rule="nonzero" transform="matrix(1,0,0,-1,9.6333,26.4348)" />
		<path id="path380" d="M1.37232 0L0 0L0 1.3913L1.37232 1.3913L1.37232 0Z" fill="rgb(235.875,217.098,121.125)" fill-rule="nonzero" transform="matrix(1,0,0,-1,8.26099,26.4348)" />
		<path id="path382" d="M1.37232 0L0 0L0 1.3913L1.37232 1.3913L1.37232 0Z" fill="rgb(235.875,217.098,121.125)" fill-rule="nonzero" transform="matrix(1,0,0,-1,38.4517,25.0435)" />
		<path id="path384" d="M1.37232 0L0 0L0 1.3913L1.37232 1.3913L1.37232 0Z" fill="rgb(235.875,217.098,121.125)" fill-rule="nonzero" transform="matrix(1,0,0,-1,37.0793,25.0435)" />
		<path id="path386" d="M1.37232 0L0 0L0 1.3913L1.37232 1.3913L1.37232 0Z" fill="rgb(235.875,217.098,121.125)" fill-rule="nonzero" transform="matrix(1,0,0,-1,35.707,25.0435)" />
		<path id="path388" d="M1.37232 0L0 0L0 1.3913L1.37232 1.3913L1.37232 0Z" fill="rgb(235.875,217.098,121.125)" fill-rule="nonzero" transform="matrix(1,0,0,-1,31.5901,25.0435)" />
		<path id="path390" d="M1.37232 0L0 0L0 1.3913L1.37232 1.3913L1.37232 0Z" fill="rgb(235.875,217.098,121.125)" fill-rule="nonzero" transform="matrix(1,0,0,-1,27.4731,25.0435)" />
		<path id="path392" d="M1.37232 0L0 0L0 1.3913L1.37232 1.3913L1.37232 0Z" fill="rgb(235.875,217.098,121.125)" fill-rule="nonzero" transform="matrix(1,0,0,-1,26.1008,25.0435)" />
		<path id="path394" d="M1.37232 0L0 0L0 1.3913L1.37232 1.3913L1.37232 0Z" fill="rgb(235.875,217.098,121.125)" fill-rule="nonzero" transform="matrix(1,0,0,-1,15.1226,25.0435)" />
		<path id="path396" d="M1.37232 0L0 0L0 1.3913L1.37232 1.3913L1.37232 0Z" fill="rgb(235.875,217.098,121.125)" fill-rule="nonzero" transform="matrix(1,0,0,-1,13.7502,25.0435)" />
		<path id="path398" d="M1.37232 0L0 0L0 1.3913L1.37232 1.3913L1.37232 0Z" fill="rgb(235.875,217.098,121.125)" fill-rule="nonzero" transform="matrix(1,0,0,-1,9.6333,25.0435)" />
		<path id="path400" d="M1.37232 0L0 0L0 1.3913L1.37232 1.3913L1.37232 0Z" fill="rgb(235.875,217.098,121.125)" fill-rule="nonzero" transform="matrix(1,0,0,-1,5.51636,25.0435)" />
		<path id="path402" d="M1.37232 0L0 0L0 1.3913L1.37232 1.3913L1.37232 0Z" fill="rgb(235.875,217.098,121.125)" fill-rule="nonzero" transform="matrix(1,0,0,-1,4.14404,25.0435)" />
		<path id="path404" d="M1.37232 0L0 0L0 1.3913L1.37232 1.3913L1.37232 0Z" fill="rgb(235.875,217.098,121.125)" fill-rule="nonzero" transform="matrix(1,0,0,-1,2.77173,25.0435)" />
		<path id="path406" d="M1.37232 0L0 0L0 1.3913L1.37232 1.3913L1.37232 0Z" fill="rgb(235.875,217.098,121.125)" fill-rule="nonzero" transform="matrix(1,0,0,-1,42.5686,23.6522)" />
		<path id="path408" d="M1.37232 0L0 0L0 1.3913L1.37232 1.3913L1.37232 0Z" fill="rgb(235.875,217.098,121.125)" fill-rule="nonzero" transform="matrix(1,0,0,-1,37.0793,23.6522)" />
		<path id="path410" d="M1.37232 0L0 0L0 1.3913L1.37232 1.3913L1.37232 0Z" fill="rgb(235.875,217.098,121.125)" fill-rule="nonzero" transform="matrix(1,0,0,-1,35.707,23.6522)" />
		<path id="path412" d="M1.37232 0L0 0L0 1.3913L1.37232 1.3913L1.37232 0Z" fill="rgb(235.875,217.098,121.125)" fill-rule="nonzero" transform="matrix(1,0,0,-1,34.3347,23.6522)" />
		<path id="path414" d="M1.37232 0L0 0L0 1.3913L1.37232 1.3913L1.37232 0Z" fill="rgb(235.875,217.098,121.125)" fill-rule="nonzero" transform="matrix(1,0,0,-1,28.8455,23.6522)" />
		<path id="path416" d="M1.37232 0L0 0L0 1.3913L1.37232 1.3913L1.37232 0Z" fill="rgb(235.875,217.098,121.125)" fill-rule="nonzero" transform="matrix(1,0,0,-1,27.4731,23.6522)" />
		<path id="path418" d="M1.37232 0L0 0L0 1.3913L1.37232 1.3913L1.37232 0Z" fill="rgb(235.875,217.098,121.125)" fill-rule="nonzero" transform="matrix(1,0,0,-1,13.7502,23.6522)" />
		<path id="path420" d="M1.37232 0L0 0L0 1.3913L1.37232 1.3913L1.37232 0Z" fill="rgb(235.875,217.098,121.125)" fill-rule="nonzero" transform="matrix(1,0,0,-1,12.3779,23.6522)" />
		<path id="path422" d="M1.37232 0L0 0L0 1.3913L1.37232 1.3913L1.37232 0Z" fill="rgb(235.875,217.098,121.125)" fill-rule="nonzero" transform="matrix(1,0,0,-1,6.88867,23.6522)" />
		<path id="path424" d="M1.37232 0L0 0L0 1.3913L1.37232 1.3913L1.37232 0Z" fill="rgb(235.875,217.098,121.125)" fill-rule="nonzero" transform="matrix(1,0,0,-1,5.51636,23.6522)" />
		<path id="path426" d="M1.37232 0L0 0L0 1.3913L1.37232 1.3913L1.37232 0Z" fill="rgb(235.875,217.098,121.125)" fill-rule="nonzero" transform="matrix(1,0,0,-1,4.14404,23.6522)" />
		<path id="path428" d="M1.37232 0L0 0L0 1.3913L1.37232 1.3913L1.37232 0Z" fill="rgb(235.875,217.098,121.125)" fill-rule="nonzero" transform="matrix(1,0,0,-1,42.5686,22.2609)" />
		<path id="path430" d="M1.37232 0L0 0L0 1.3913L1.37232 1.3913L1.37232 0Z" fill="rgb(235.875,217.098,121.125)" fill-rule="nonzero" transform="matrix(1,0,0,-1,41.1963,22.2609)" />
		<path id="path432" d="M1.37232 0L0 0L0 1.3913L1.37232 1.3913L1.37232 0Z" fill="rgb(235.875,217.098,121.125)" fill-rule="nonzero" transform="matrix(1,0,0,-1,35.707,22.2609)" />
		<path id="path434" d="M1.37232 0L0 0L0 1.3913L1.37232 1.3913L1.37232 0Z" fill="rgb(235.875,217.098,121.125)" fill-rule="nonzero" transform="matrix(1,0,0,-1,34.3347,22.2609)" />
		<path id="path436" d="M1.37232 0L0 0L0 1.3913L1.37232 1.3913L1.37232 0Z" fill="rgb(235.875,217.098,121.125)" fill-rule="nonzero" transform="matrix(1,0,0,-1,32.9624,22.2609)" />
		<path id="path438" d="M1.37232 0L0 0L0 1.3913L1.37232 1.3913L1.37232 0Z" fill="rgb(235.875,217.098,121.125)" fill-rule="nonzero" transform="matrix(1,0,0,-1,30.2178,22.2609)" />
		<path id="path440" d="M1.37232 0L0 0L0 1.3913L1.37232 1.3913L1.37232 0Z" fill="rgb(235.875,217.098,121.125)" fill-rule="nonzero" transform="matrix(1,0,0,-1,28.8455,22.2609)" />
		<path id="path442" d="M1.37232 0L0 0L0 1.3913L1.37232 1.3913L1.37232 0Z" fill="rgb(235.875,217.098,121.125)" fill-rule="nonzero" transform="matrix(1,0,0,-1,20.6118,22.2609)" />
		<path id="path444" d="M1.37232 0L0 0L0 1.3913L1.37232 1.3913L1.37232 0Z" fill="rgb(235.875,217.098,121.125)" fill-rule="nonzero" transform="matrix(1,0,0,-1,12.3779,22.2609)" />
		<path id="path446" d="M1.37232 0L0 0L0 1.3913L1.37232 1.3913L1.37232 0Z" fill="rgb(235.875,217.098,121.125)" fill-rule="nonzero" transform="matrix(1,0,0,-1,11.0056,22.2609)" />
		<path id="path448" d="M1.37232 0L0 0L0 1.3913L1.37232 1.3913L1.37232 0Z" fill="rgb(235.875,217.098,121.125)" fill-rule="nonzero" transform="matrix(1,0,0,-1,8.26099,22.2609)" />
		<path id="path450" d="M1.37232 0L0 0L0 1.3913L1.37232 1.3913L1.37232 0Z" fill="rgb(235.875,217.098,121.125)" fill-rule="nonzero" transform="matrix(1,0,0,-1,6.88867,22.2609)" />
		<path id="path452" d="M1.37232 0L0 0L0 1.3913L1.37232 1.3913L1.37232 0Z" fill="rgb(235.875,217.098,121.125)" fill-rule="nonzero" transform="matrix(1,0,0,-1,5.51636,22.2609)" />
		<path id="path454" d="M1.37232 0L0 0L0 1.3913L1.37232 1.3913L1.37232 0Z" fill="rgb(235.875,217.098,121.125)" fill-rule="nonzero" transform="matrix(1,0,0,-1,0,20.8696)" />
		<path id="path456" d="M1.37232 0L0 0L0 1.3913L1.37232 1.3913L1.37232 0Z" fill="rgb(235.875,217.098,121.125)" fill-rule="nonzero" transform="matrix(1,0,0,-1,1.39941,20.8696)" />
		<path id="path458" d="M1.37232 0L0 0L0 1.3913L1.37232 1.3913L1.37232 0Z" fill="rgb(235.875,217.098,121.125)" fill-rule="nonzero" transform="matrix(1,0,0,-1,0,22.2609)" />
		<path id="path460" d="M1.37232 0L0 0L0 1.3913L1.37232 1.3913L1.37232 0Z" fill="rgb(235.875,217.098,121.125)" fill-rule="nonzero" transform="matrix(1,0,0,-1,0,19.4783)" />
		<path id="path462" d="M1.37232 0L0 0L0 1.3913L1.37232 1.3913L1.37232 0Z" fill="rgb(235.875,217.098,121.125)" fill-rule="nonzero" transform="matrix(1,0,0,-1,42.5686,20.8696)" />
		<path id="path464" d="M1.37232 0L0 0L0 1.3913L1.37232 1.3913L1.37232 0Z" fill="rgb(235.875,217.098,121.125)" fill-rule="nonzero" transform="matrix(1,0,0,-1,41.1963,20.8696)" />
		<path id="path466" d="M1.37232 0L0 0L0 1.3913L1.37232 1.3913L1.37232 0Z" fill="rgb(235.875,217.098,121.125)" fill-rule="nonzero" transform="matrix(1,0,0,-1,39.824,20.8696)" />
		<path id="path468" d="M1.37232 0L0 0L0 1.3913L1.37232 1.3913L1.37232 0Z" fill="rgb(235.875,217.098,121.125)" fill-rule="nonzero" transform="matrix(1,0,0,-1,21.9839,20.8696)" />
		<path id="path470" d="M1.37232 0L0 0L0 1.3913L1.37232 1.3913L1.37232 0Z" fill="rgb(235.875,217.098,121.125)" fill-rule="nonzero" transform="matrix(1,0,0,-1,20.6118,20.8696)" />
		<path id="path472" d="M1.37232 0L0 0L0 1.3913L1.37232 1.3913L1.37232 0Z" fill="rgb(235.875,217.098,121.125)" fill-rule="nonzero" transform="matrix(1,0,0,-1,19.2395,20.8696)" />
		<path id="path474" d="M1.37232 0L0 0L0 1.3913L1.37232 1.3913L1.37232 0Z" fill="rgb(235.875,217.098,121.125)" fill-rule="nonzero" transform="matrix(1,0,0,-1,42.5686,19.4783)" />
		<path id="path476" d="M1.37232 0L0 0L0 1.3913L1.37232 1.3913L1.37232 0Z" fill="rgb(235.875,217.098,121.125)" fill-rule="nonzero" transform="matrix(1,0,0,-1,41.1963,19.4783)" />
		<path id="path478" d="M1.37232 0L0 0L0 1.3913L1.37232 1.3913L1.37232 0Z" fill="rgb(235.875,217.098,121.125)" fill-rule="nonzero" transform="matrix(1,0,0,-1,35.707,19.4783)" />
		<path id="path480" d="M1.37232 0L0 0L0 1.3913L1.37232 1.3913L1.37232 0Z" fill="rgb(235.875,217.098,121.125)" fill-rule="nonzero" transform="matrix(1,0,0,-1,34.3347,19.4783)" />
		<path id="path482" d="M1.37232 0L0 0L0 1.3913L1.37232 1.3913L1.37232 0Z" fill="rgb(235.875,217.098,121.125)" fill-rule="nonzero" transform="matrix(1,0,0,-1,32.9624,19.4783)" />
		<path id="path484" d="M1.37232 0L0 0L0 1.3913L1.37232 1.3913L1.37232 0Z" fill="rgb(235.875,217.098,121.125)" fill-rule="nonzero" transform="matrix(1,0,0,-1,30.2178,19.4783)" />
		<path id="path486" d="M1.37232 0L0 0L0 1.3913L1.37232 1.3913L1.37232 0Z" fill="rgb(235.875,217.098,121.125)" fill-rule="nonzero" transform="matrix(1,0,0,-1,28.8455,19.4783)" />
		<path id="path488" d="M1.37232 0L0 0L0 1.3913L1.37232 1.3913L1.37232 0Z" fill="rgb(235.875,217.098,121.125)" fill-rule="nonzero" transform="matrix(1,0,0,-1,20.6118,19.4783)" />
		<path id="path490" d="M1.37232 0L0 0L0 1.3913L1.37232 1.3913L1.37232 0Z" fill="rgb(235.875,217.098,121.125)" fill-rule="nonzero" transform="matrix(1,0,0,-1,12.3779,19.4783)" />
		<path id="path492" d="M1.37232 0L0 0L0 1.3913L1.37232 1.3913L1.37232 0Z" fill="rgb(235.875,217.098,121.125)" fill-rule="nonzero" transform="matrix(1,0,0,-1,11.0056,19.4783)" />
		<path id="path494" d="M1.37232 0L0 0L0 1.3913L1.37232 1.3913L1.37232 0Z" fill="rgb(235.875,217.098,121.125)" fill-rule="nonzero" transform="matrix(1,0,0,-1,8.26099,19.4783)" />
		<path id="path496" d="M1.37232 0L0 0L0 1.3913L1.37232 1.3913L1.37232 0Z" fill="rgb(235.875,217.098,121.125)" fill-rule="nonzero" transform="matrix(1,0,0,-1,6.88867,19.4783)" />
		<path id="path498" d="M1.37232 0L0 0L0 1.3913L1.37232 1.3913L1.37232 0Z" fill="rgb(235.875,217.098,121.125)" fill-rule="nonzero" transform="matrix(1,0,0,-1,5.51636,19.4783)" />
		<path id="path500" d="M1.37232 0L0 0L0 1.3913L1.37232 1.3913L1.37232 0Z" fill="rgb(235.875,217.098,121.125)" fill-rule="nonzero" transform="matrix(1,0,0,-1,42.5686,18.087)" />
		<path id="path502" d="M1.37232 0L0 0L0 1.3913L1.37232 1.3913L1.37232 0Z" fill="rgb(235.875,217.098,121.125)" fill-rule="nonzero" transform="matrix(1,0,0,-1,37.0793,18.087)" />
		<path id="path504" d="M1.37232 0L0 0L0 1.3913L1.37232 1.3913L1.37232 0Z" fill="rgb(235.875,217.098,121.125)" fill-rule="nonzero" transform="matrix(1,0,0,-1,35.707,18.087)" />
		<path id="path506" d="M1.37232 0L0 0L0 1.3913L1.37232 1.3913L1.37232 0Z" fill="rgb(235.875,217.098,121.125)" fill-rule="nonzero" transform="matrix(1,0,0,-1,34.3347,18.087)" />
		<path id="path508" d="M1.37232 0L0 0L0 1.3913L1.37232 1.3913L1.37232 0Z" fill="rgb(235.875,217.098,121.125)" fill-rule="nonzero" transform="matrix(1,0,0,-1,28.8455,18.087)" />
		<path id="path510" d="M1.37232 0L0 0L0 1.3913L1.37232 1.3913L1.37232 0Z" fill="rgb(235.875,217.098,121.125)" fill-rule="nonzero" transform="matrix(1,0,0,-1,27.4731,18.087)" />
		<path id="path512" d="M1.37232 0L0 0L0 1.3913L1.37232 1.3913L1.37232 0Z" fill="rgb(235.875,217.098,121.125)" fill-rule="nonzero" transform="matrix(1,0,0,-1,13.7502,18.087)" />
		<path id="path514" d="M1.37232 0L0 0L0 1.3913L1.37232 1.3913L1.37232 0Z" fill="rgb(235.875,217.098,121.125)" fill-rule="nonzero" transform="matrix(1,0,0,-1,12.3779,18.087)" />
		<path id="path516" d="M1.37232 0L0 0L0 1.3913L1.37232 1.3913L1.37232 0Z" fill="rgb(235.875,217.098,121.125)" fill-rule="nonzero" transform="matrix(1,0,0,-1,6.88867,18.087)" />
		<path id="path518" d="M1.37232 0L0 0L0 1.3913L1.37232 1.3913L1.37232 0Z" fill="rgb(235.875,217.098,121.125)" fill-rule="nonzero" transform="matrix(1,0,0,-1,5.51636,18.087)" />
		<path id="path520" d="M1.37232 0L0 0L0 1.3913L1.37232 1.3913L1.37232 0Z" fill="rgb(235.875,217.098,121.125)" fill-rule="nonzero" transform="matrix(1,0,0,-1,4.14404,18.087)" />
		<path id="path522" d="M1.37232 0L0 0L0 1.3913L1.37232 1.3913L1.37232 0Z" fill="rgb(235.875,217.098,121.125)" fill-rule="nonzero" transform="matrix(1,0,0,-1,38.4517,16.6956)" />
		<path id="path524" d="M1.37232 0L0 0L0 1.3913L1.37232 1.3913L1.37232 0Z" fill="rgb(235.875,217.098,121.125)" fill-rule="nonzero" transform="matrix(1,0,0,-1,37.0793,16.6956)" />
		<path id="path526" d="M1.37232 0L0 0L0 1.3913L1.37232 1.3913L1.37232 0Z" fill="rgb(235.875,217.098,121.125)" fill-rule="nonzero" transform="matrix(1,0,0,-1,35.707,16.6956)" />
		<path id="path528" d="M1.37232 0L0 0L0 1.3913L1.37232 1.3913L1.37232 0Z" fill="rgb(235.875,217.098,121.125)" fill-rule="nonzero" transform="matrix(1,0,0,-1,31.5901,16.6956)" />
		<path id="path530" d="M1.37232 0L0 0L0 1.3913L1.37232 1.3913L1.37232 0Z" fill="rgb(235.875,217.098,121.125)" fill-rule="nonzero" transform="matrix(1,0,0,-1,27.4731,16.6956)" />
		<path id="path532" d="M1.37232 0L0 0L0 1.3913L1.37232 1.3913L1.37232 0Z" fill="rgb(235.875,217.098,121.125)" fill-rule="nonzero" transform="matrix(1,0,0,-1,26.1008,16.6956)" />
		<path id="path534" d="M1.37232 0L0 0L0 1.3913L1.37232 1.3913L1.37232 0Z" fill="rgb(235.875,217.098,121.125)" fill-rule="nonzero" transform="matrix(1,0,0,-1,15.1226,16.6956)" />
		<path id="path536" d="M1.37232 0L0 0L0 1.3913L1.37232 1.3913L1.37232 0Z" fill="rgb(235.875,217.098,121.125)" fill-rule="nonzero" transform="matrix(1,0,0,-1,13.7502,16.6956)" />
		<path id="path538" d="M1.37232 0L0 0L0 1.3913L1.37232 1.3913L1.37232 0Z" fill="rgb(235.875,217.098,121.125)" fill-rule="nonzero" transform="matrix(1,0,0,-1,9.6333,16.6956)" />
		<path id="path540" d="M1.37232 0L0 0L0 1.3913L1.37232 1.3913L1.37232 0Z" fill="rgb(235.875,217.098,121.125)" fill-rule="nonzero" transform="matrix(1,0,0,-1,5.51636,16.6956)" />
		<path id="path542" d="M1.37232 0L0 0L0 1.3913L1.37232 1.3913L1.37232 0Z" fill="rgb(235.875,217.098,121.125)" fill-rule="nonzero" transform="matrix(1,0,0,-1,4.14404,16.6956)" />
		<path id="path544" d="M1.37232 0L0 0L0 1.3913L1.37232 1.3913L1.37232 0Z" fill="rgb(235.875,217.098,121.125)" fill-rule="nonzero" transform="matrix(1,0,0,-1,2.77173,16.6956)" />
		<path id="path546" d="M1.37232 0L0 0L0 1.3913L1.37232 1.3913L1.37232 0Z" fill="rgb(235.875,217.098,121.125)" fill-rule="nonzero" transform="matrix(1,0,0,-1,32.9624,15.3044)" />
		<path id="path548" d="M1.37232 0L0 0L0 1.3913L1.37232 1.3913L1.37232 0Z" fill="rgb(235.875,217.098,121.125)" fill-rule="nonzero" transform="matrix(1,0,0,-1,31.5901,15.3044)" />
		<path id="path550" d="M1.37232 0L0 0L0 1.3913L1.37232 1.3913L1.37232 0Z" fill="rgb(235.875,217.098,121.125)" fill-rule="nonzero" transform="matrix(1,0,0,-1,26.1008,15.3044)" />
		<path id="path552" d="M1.37232 0L0 0L0 1.3913L1.37232 1.3913L1.37232 0Z" fill="rgb(235.875,217.098,121.125)" fill-rule="nonzero" transform="matrix(1,0,0,-1,24.7285,15.3044)" />
		<path id="path554" d="M1.37232 0L0 0L0 1.3913L1.37232 1.3913L1.37232 0Z" fill="rgb(235.875,217.098,121.125)" fill-rule="nonzero" transform="matrix(1,0,0,-1,16.4949,15.3044)" />
		<path id="path556" d="M1.37232 0L0 0L0 1.3913L1.37232 1.3913L1.37232 0Z" fill="rgb(235.875,217.098,121.125)" fill-rule="nonzero" transform="matrix(1,0,0,-1,15.1226,15.3044)" />
		<path id="path558" d="M1.37232 0L0 0L0 1.3913L1.37232 1.3913L1.37232 0Z" fill="rgb(235.875,217.098,121.125)" fill-rule="nonzero" transform="matrix(1,0,0,-1,9.6333,15.3044)" />
		<path id="path560" d="M1.37232 0L0 0L0 1.3913L1.37232 1.3913L1.37232 0Z" fill="rgb(235.875,217.098,121.125)" fill-rule="nonzero" transform="matrix(1,0,0,-1,8.26099,15.3044)" />
		<path id="path562" d="M1.37232 0L0 0L0 1.3913L1.37232 1.3913L1.37232 0Z" fill="rgb(235.875,217.098,121.125)" fill-rule="nonzero" transform="matrix(1,0,0,-1,34.3347,13.9131)" />
		<path id="path564" d="M1.37232 0L0 0L0 1.3913L1.37232 1.3913L1.37232 0Z" fill="rgb(235.875,217.098,121.125)" fill-rule="nonzero" transform="matrix(1,0,0,-1,32.9624,13.9131)" />
		<path id="path566" d="M1.37232 0L0 0L0 1.3913L1.37232 1.3913L1.37232 0Z" fill="rgb(235.875,217.098,121.125)" fill-rule="nonzero" transform="matrix(1,0,0,-1,31.5901,13.9131)" />
		<path id="path568" d="M1.37232 0L0 0L0 1.3913L1.37232 1.3913L1.37232 0Z" fill="rgb(235.875,217.098,121.125)" fill-rule="nonzero" transform="matrix(1,0,0,-1,24.7285,13.9131)" />
		<path id="path570" d="M1.37232 0L0 0L0 1.3913L1.37232 1.3913L1.37232 0Z" fill="rgb(235.875,217.098,121.125)" fill-rule="nonzero" transform="matrix(1,0,0,-1,23.3562,13.9131)" />
		<path id="path572" d="M1.37232 0L0 0L0 1.3913L1.37232 1.3913L1.37232 0Z" fill="rgb(235.875,217.098,121.125)" fill-rule="nonzero" transform="matrix(1,0,0,-1,17.8672,13.9131)" />
		<path id="path574" d="M1.37232 0L0 0L0 1.3913L1.37232 1.3913L1.37232 0Z" fill="rgb(235.875,217.098,121.125)" fill-rule="nonzero" transform="matrix(1,0,0,-1,16.4949,13.9131)" />
		<path id="path576" d="M1.37232 0L0 0L0 1.3913L1.37232 1.3913L1.37232 0Z" fill="rgb(235.875,217.098,121.125)" fill-rule="nonzero" transform="matrix(1,0,0,-1,9.6333,13.9131)" />
		<path id="path578" d="M1.37232 0L0 0L0 1.3913L1.37232 1.3913L1.37232 0Z" fill="rgb(235.875,217.098,121.125)" fill-rule="nonzero" transform="matrix(1,0,0,-1,8.26099,13.9131)" />
		<path id="path580" d="M1.37232 0L0 0L0 1.3913L1.37232 1.3913L1.37232 0Z" fill="rgb(235.875,217.098,121.125)" fill-rule="nonzero" transform="matrix(1,0,0,-1,6.88867,13.9131)" />
		<path id="path582" d="M1.37232 0L0 0L0 1.3913L1.37232 1.3913L1.37232 0Z" fill="rgb(235.875,217.098,121.125)" fill-rule="nonzero" transform="matrix(1,0,0,-1,34.3347,12.5217)" />
		<path id="path584" d="M1.37232 0L0 0L0 1.3913L1.37232 1.3913L1.37232 0Z" fill="rgb(235.875,217.098,121.125)" fill-rule="nonzero" transform="matrix(1,0,0,-1,32.9624,12.5217)" />
		<path id="path586" d="M1.37232 0L0 0L0 1.3913L1.37232 1.3913L1.37232 0Z" fill="rgb(235.875,217.098,121.125)" fill-rule="nonzero" transform="matrix(1,0,0,-1,23.3562,12.5217)" />
		<path id="path588" d="M1.37232 0L0 0L0 1.3913L1.37232 1.3913L1.37232 0Z" fill="rgb(235.875,217.098,121.125)" fill-rule="nonzero" transform="matrix(1,0,0,-1,21.9839,12.5217)" />
		<path id="path590" d="M1.37232 0L0 0L0 1.3913L1.37232 1.3913L1.37232 0Z" fill="rgb(235.875,217.098,121.125)" fill-rule="nonzero" transform="matrix(1,0,0,-1,19.2395,12.5217)" />
		<path id="path592" d="M1.37232 0L0 0L0 1.3913L1.37232 1.3913L1.37232 0Z" fill="rgb(235.875,217.098,121.125)" fill-rule="nonzero" transform="matrix(1,0,0,-1,17.8672,12.5217)" />
		<path id="path594" d="M1.37232 0L0 0L0 1.3913L1.37232 1.3913L1.37232 0Z" fill="rgb(235.875,217.098,121.125)" fill-rule="nonzero" transform="matrix(1,0,0,-1,8.26099,12.5217)" />
		<path id="path596" d="M1.37232 0L0 0L0 1.3913L1.37232 1.3913L1.37232 0Z" fill="rgb(235.875,217.098,121.125)" fill-rule="nonzero" transform="matrix(1,0,0,-1,6.88867,12.5217)" />
		<path id="path598" d="M1.37232 0L0 0L0 1.3913L1.37232 1.3913L1.37232 0Z" fill="rgb(235.875,217.098,121.125)" fill-rule="nonzero" transform="matrix(1,0,0,-1,34.3347,11.1304)" />
		<path id="path600" d="M1.37232 0L0 0L0 1.3913L1.37232 1.3913L1.37232 0Z" fill="rgb(235.875,217.098,121.125)" fill-rule="nonzero" transform="matrix(1,0,0,-1,21.9839,11.1304)" />
		<path id="path602" d="M1.37232 0L0 0L0 1.3913L1.37232 1.3913L1.37232 0Z" fill="rgb(235.875,217.098,121.125)" fill-rule="nonzero" transform="matrix(1,0,0,-1,19.2395,11.1304)" />
		<path id="path604" d="M1.37232 0L0 0L0 1.3913L1.37232 1.3913L1.37232 0Z" fill="rgb(235.875,217.098,121.125)" fill-rule="nonzero" transform="matrix(1,0,0,-1,6.88867,11.1304)" />
		<path id="path606" d="M1.37232 0L0 0L0 1.3913L1.37232 1.3913L1.37232 0Z" fill="rgb(235.875,217.098,121.125)" fill-rule="nonzero" transform="matrix(1,0,0,-1,41.1963,9.73914)" />
		<path id="path608" d="M1.37232 0L0 0L0 1.3913L1.37232 1.3913L1.37232 0Z" fill="rgb(235.875,217.098,121.125)" fill-rule="nonzero" transform="matrix(1,0,0,-1,0.0270996,9.73914)" />
		<path id="path610" d="M1.37232 0L0 0L0 1.3913L1.37232 1.3913L1.37232 0Z" fill="rgb(235.875,217.098,121.125)" fill-rule="nonzero" transform="matrix(1,0,0,-1,41.1963,8.34784)" />
		<path id="path612" d="M1.37232 0L0 0L0 1.3913L1.37232 1.3913L1.37232 0Z" fill="rgb(235.875,217.098,121.125)" fill-rule="nonzero" transform="matrix(1,0,0,-1,39.824,8.34784)" />
		<path id="path614" d="M1.37232 0L0 0L0 1.3913L1.37232 1.3913L1.37232 0Z" fill="rgb(235.875,217.098,121.125)" fill-rule="nonzero" transform="matrix(1,0,0,-1,27.4731,8.34784)" />
		<path id="path616" d="M1.37232 0L0 0L0 1.3913L1.37232 1.3913L1.37232 0Z" fill="rgb(235.875,217.098,121.125)" fill-rule="nonzero" transform="matrix(1,0,0,-1,26.1008,8.34784)" />
		<path id="path618" d="M1.37232 0L0 0L0 1.3913L1.37232 1.3913L1.37232 0Z" fill="rgb(235.875,217.098,121.125)" fill-rule="nonzero" transform="matrix(1,0,0,-1,24.7285,8.34784)" />
		<path id="path620" d="M1.37232 0L0 0L0 1.3913L1.37232 1.3913L1.37232 0Z" fill="rgb(235.875,217.098,121.125)" fill-rule="nonzero" transform="matrix(1,0,0,-1,16.4949,8.34784)" />
		<path id="path622" d="M1.37232 0L0 0L0 1.3913L1.37232 1.3913L1.37232 0Z" fill="rgb(235.875,217.098,121.125)" fill-rule="nonzero" transform="matrix(1,0,0,-1,15.1226,8.34784)" />
		<path id="path624" d="M1.37232 0L0 0L0 1.3913L1.37232 1.3913L1.37232 0Z" fill="rgb(235.875,217.098,121.125)" fill-rule="nonzero" transform="matrix(1,0,0,-1,13.7502,8.34784)" />
		<path id="path626" d="M1.37232 0L0 0L0 1.3913L1.37232 1.3913L1.37232 0Z" fill="rgb(235.875,217.098,121.125)" fill-rule="nonzero" transform="matrix(1,0,0,-1,1.39941,8.34784)" />
		<path id="path628" d="M1.37232 0L0 0L0 1.3913L1.37232 1.3913L1.37232 0Z" fill="rgb(235.875,217.098,121.125)" fill-rule="nonzero" transform="matrix(1,0,0,-1,0.0270996,8.34784)" />
		<path id="path630" d="M1.37232 0L0 0L0 1.3913L1.37232 1.3913L1.37232 0Z" fill="rgb(235.875,217.098,121.125)" fill-rule="nonzero" transform="matrix(1,0,0,-1,41.1963,6.95654)" />
		<path id="path632" d="M1.37232 0L0 0L0 1.3913L1.37232 1.3913L1.37232 0Z" fill="rgb(235.875,217.098,121.125)" fill-rule="nonzero" transform="matrix(1,0,0,-1,39.824,6.95654)" />
		<path id="path634" d="M1.37232 0L0 0L0 1.3913L1.37232 1.3913L1.37232 0Z" fill="rgb(235.875,217.098,121.125)" fill-rule="nonzero" transform="matrix(1,0,0,-1,38.4517,6.95654)" />
		<path id="path636" d="M1.37232 0L0 0L0 1.3913L1.37232 1.3913L1.37232 0Z" fill="rgb(235.875,217.098,121.125)" fill-rule="nonzero" transform="matrix(1,0,0,-1,28.8455,6.95654)" />
		<path id="path638" d="M1.37232 0L0 0L0 1.3913L1.37232 1.3913L1.37232 0Z" fill="rgb(235.875,217.098,121.125)" fill-rule="nonzero" transform="matrix(1,0,0,-1,27.4731,6.95654)" />
		<path id="path640" d="M1.37232 0L0 0L0 1.3913L1.37232 1.3913L1.37232 0Z" fill="rgb(235.875,217.098,121.125)" fill-rule="nonzero" transform="matrix(1,0,0,-1,26.1008,6.95654)" />
		<path id="path642" d="M1.37232 0L0 0L0 1.3913L1.37232 1.3913L1.37232 0Z" fill="rgb(235.875,217.098,121.125)" fill-rule="nonzero" transform="matrix(1,0,0,-1,21.9839,6.95654)" />
		<path id="path644" d="M1.37232 0L0 0L0 1.3913L1.37232 1.3913L1.37232 0Z" fill="rgb(235.875,217.098,121.125)" fill-rule="nonzero" transform="matrix(1,0,0,-1,19.2395,6.95654)" />
		<path id="path646" d="M1.37232 0L0 0L0 1.3913L1.37232 1.3913L1.37232 0Z" fill="rgb(235.875,217.098,121.125)" fill-rule="nonzero" transform="matrix(1,0,0,-1,15.1226,6.95654)" />
		<path id="path648" d="M1.37232 0L0 0L0 1.3913L1.37232 1.3913L1.37232 0Z" fill="rgb(235.875,217.098,121.125)" fill-rule="nonzero" transform="matrix(1,0,0,-1,13.7502,6.95654)" />
		<path id="path650" d="M1.37232 0L0 0L0 1.3913L1.37232 1.3913L1.37232 0Z" fill="rgb(235.875,217.098,121.125)" fill-rule="nonzero" transform="matrix(1,0,0,-1,12.3779,6.95654)" />
		<path id="path652" d="M1.37232 0L0 0L0 1.3913L1.37232 1.3913L1.37232 0Z" fill="rgb(235.875,217.098,121.125)" fill-rule="nonzero" transform="matrix(1,0,0,-1,2.77173,6.95654)" />
		<path id="path654" d="M1.37232 0L0 0L0 1.3913L1.37232 1.3913L1.37232 0Z" fill="rgb(235.875,217.098,121.125)" fill-rule="nonzero" transform="matrix(1,0,0,-1,1.39941,6.95654)" />
		<path id="path656" d="M1.37232 0L0 0L0 1.3913L1.37232 1.3913L1.37232 0Z" fill="rgb(235.875,217.098,121.125)" fill-rule="nonzero" transform="matrix(1,0,0,-1,0.0270996,6.95654)" />
		<path id="path658" d="M1.37232 0L0 0L0 1.3913L1.37232 1.3913L1.37232 0Z" fill="rgb(235.875,217.098,121.125)" fill-rule="nonzero" transform="matrix(1,0,0,-1,39.824,5.56522)" />
		<path id="path660" d="M1.37232 0L0 0L0 1.3913L1.37232 1.3913L1.37232 0Z" fill="rgb(235.875,217.098,121.125)" fill-rule="nonzero" transform="matrix(1,0,0,-1,38.4517,5.56522)" />
		<path id="path662" d="M1.37232 0L0 0L0 1.3913L1.37232 1.3913L1.37232 0Z" fill="rgb(235.875,217.098,121.125)" fill-rule="nonzero" transform="matrix(1,0,0,-1,37.0793,5.56522)" />
		<path id="path664" d="M1.37232 0L0 0L0 1.3913L1.37232 1.3913L1.37232 0Z" fill="rgb(235.875,217.098,121.125)" fill-rule="nonzero" transform="matrix(1,0,0,-1,30.2178,5.56522)" />
		<path id="path666" d="M1.37232 0L0 0L0 1.3913L1.37232 1.3913L1.37232 0Z" fill="rgb(235.875,217.098,121.125)" fill-rule="nonzero" transform="matrix(1,0,0,-1,28.8455,5.56522)" />
		<path id="path668" d="M1.37232 0L0 0L0 1.3913L1.37232 1.3913L1.37232 0Z" fill="rgb(235.875,217.098,121.125)" fill-rule="nonzero" transform="matrix(1,0,0,-1,27.4731,5.56522)" />
		<path id="path670" d="M1.37232 0L0 0L0 1.3913L1.37232 1.3913L1.37232 0Z" fill="rgb(235.875,217.098,121.125)" fill-rule="nonzero" transform="matrix(1,0,0,-1,23.3562,5.56522)" />
		<path id="path672" d="M1.37232 0L0 0L0 1.3913L1.37232 1.3913L1.37232 0Z" fill="rgb(235.875,217.098,121.125)" fill-rule="nonzero" transform="matrix(1,0,0,-1,21.9839,5.56522)" />
		<path id="path674" d="M1.37232 0L0 0L0 1.3913L1.37232 1.3913L1.37232 0Z" fill="rgb(235.875,217.098,121.125)" fill-rule="nonzero" transform="matrix(1,0,0,-1,19.2395,5.56522)" />
		<path id="path676" d="M1.37232 0L0 0L0 1.3913L1.37232 1.3913L1.37232 0Z" fill="rgb(235.875,217.098,121.125)" fill-rule="nonzero" transform="matrix(1,0,0,-1,17.8672,5.56522)" />
		<path id="path678" d="M1.37232 0L0 0L0 1.3913L1.37232 1.3913L1.37232 0Z" fill="rgb(235.875,217.098,121.125)" fill-rule="nonzero" transform="matrix(1,0,0,-1,13.7502,5.56522)" />
		<path id="path680" d="M1.37232 0L0 0L0 1.3913L1.37232 1.3913L1.37232 0Z" fill="rgb(235.875,217.098,121.125)" fill-rule="nonzero" transform="matrix(1,0,0,-1,12.3779,5.56522)" />
		<path id="path682" d="M1.37232 0L0 0L0 1.3913L1.37232 1.3913L1.37232 0Z" fill="rgb(235.875,217.098,121.125)" fill-rule="nonzero" transform="matrix(1,0,0,-1,11.0056,5.56522)" />
		<path id="path684" d="M1.37232 0L0 0L0 1.3913L1.37232 1.3913L1.37232 0Z" fill="rgb(235.875,217.098,121.125)" fill-rule="nonzero" transform="matrix(1,0,0,-1,4.14404,5.56522)" />
		<path id="path686" d="M1.37232 0L0 0L0 1.3913L1.37232 1.3913L1.37232 0Z" fill="rgb(235.875,217.098,121.125)" fill-rule="nonzero" transform="matrix(1,0,0,-1,2.77173,5.56522)" />
		<path id="path688" d="M1.37232 0L0 0L0 1.3913L1.37232 1.3913L1.37232 0Z" fill="rgb(235.875,217.098,121.125)" fill-rule="nonzero" transform="matrix(1,0,0,-1,1.39941,5.56522)" />
		<path id="path690" d="M1.37232 0L0 0L0 1.3913L1.37232 1.3913L1.37232 0Z" fill="rgb(235.875,217.098,121.125)" fill-rule="nonzero" transform="matrix(1,0,0,-1,38.4517,4.17392)" />
		<path id="path692" d="M1.37232 0L0 0L0 1.3913L1.37232 1.3913L1.37232 0Z" fill="rgb(235.875,217.098,121.125)" fill-rule="nonzero" transform="matrix(1,0,0,-1,37.0793,4.17392)" />
		<path id="path694" d="M1.37232 0L0 0L0 1.3913L1.37232 1.3913L1.37232 0Z" fill="rgb(235.875,217.098,121.125)" fill-rule="nonzero" transform="matrix(1,0,0,-1,35.707,4.17392)" />
		<path id="path696" d="M1.37232 0L0 0L0 1.3913L1.37232 1.3913L1.37232 0Z" fill="rgb(235.875,217.098,121.125)" fill-rule="nonzero" transform="matrix(1,0,0,-1,24.7285,4.17392)" />
		<path id="path698" d="M1.37232 0L0 0L0 1.3913L1.37232 1.3913L1.37232 0Z" fill="rgb(235.875,217.098,121.125)" fill-rule="nonzero" transform="matrix(1,0,0,-1,23.3562,4.17392)" />
		<path id="path700" d="M1.37232 0L0 0L0 1.3913L1.37232 1.3913L1.37232 0Z" fill="rgb(235.875,217.098,121.125)" fill-rule="nonzero" transform="matrix(1,0,0,-1,21.9839,4.17392)" />
		<path id="path702" d="M1.37232 0L0 0L0 1.3913L1.37232 1.3913L1.37232 0Z" fill="rgb(235.875,217.098,121.125)" fill-rule="nonzero" transform="matrix(1,0,0,-1,19.2395,4.17392)" />
		<path id="path704" d="M1.37232 0L0 0L0 1.3913L1.37232 1.3913L1.37232 0Z" fill="rgb(235.875,217.098,121.125)" fill-rule="nonzero" transform="matrix(1,0,0,-1,17.8672,4.17392)" />
		<path id="path706" d="M1.37232 0L0 0L0 1.3913L1.37232 1.3913L1.37232 0Z" fill="rgb(235.875,217.098,121.125)" fill-rule="nonzero" transform="matrix(1,0,0,-1,16.4949,4.17392)" />
		<path id="path708" d="M1.37232 0L0 0L0 1.3913L1.37232 1.3913L1.37232 0Z" fill="rgb(235.875,217.098,121.125)" fill-rule="nonzero" transform="matrix(1,0,0,-1,5.51636,4.17392)" />
		<path id="path710" d="M1.37232 0L0 0L0 1.3913L1.37232 1.3913L1.37232 0Z" fill="rgb(235.875,217.098,121.125)" fill-rule="nonzero" transform="matrix(1,0,0,-1,4.14404,4.17392)" />
		<path id="path712" d="M1.37232 0L0 0L0 1.3913L1.37232 1.3913L1.37232 0Z" fill="rgb(235.875,217.098,121.125)" fill-rule="nonzero" transform="matrix(1,0,0,-1,2.77173,4.17392)" />
		<path id="path714" d="M1.37232 0L0 0L0 1.3913L1.37232 1.3913L1.37232 0Z" fill="rgb(235.875,217.098,121.125)" fill-rule="nonzero" transform="matrix(1,0,0,-1,42.5686,2.78259)" />
		<path id="path716" d="M1.37232 0L0 0L0 1.3913L1.37232 1.3913L1.37232 0Z" fill="rgb(235.875,217.098,121.125)" fill-rule="nonzero" transform="matrix(1,0,0,-1,37.0793,2.78259)" />
		<path id="path718" d="M1.37232 0L0 0L0 1.3913L1.37232 1.3913L1.37232 0Z" fill="rgb(235.875,217.098,121.125)" fill-rule="nonzero" transform="matrix(1,0,0,-1,35.707,2.78259)" />
		<path id="path720" d="M1.37232 0L0 0L0 1.3913L1.37232 1.3913L1.37232 0Z" fill="rgb(235.875,217.098,121.125)" fill-rule="nonzero" transform="matrix(1,0,0,-1,34.3347,2.78259)" />
		<path id="path722" d="M1.37232 0L0 0L0 1.3913L1.37232 1.3913L1.37232 0Z" fill="rgb(235.875,217.098,121.125)" fill-rule="nonzero" transform="matrix(1,0,0,-1,24.7285,2.78259)" />
		<path id="path724" d="M1.37232 0L0 0L0 1.3913L1.37232 1.3913L1.37232 0Z" fill="rgb(235.875,217.098,121.125)" fill-rule="nonzero" transform="matrix(1,0,0,-1,23.3562,2.78259)" />
		<path id="path726" d="M1.37232 0L0 0L0 1.3913L1.37232 1.3913L1.37232 0Z" fill="rgb(235.875,217.098,121.125)" fill-rule="nonzero" transform="matrix(1,0,0,-1,17.8672,2.78259)" />
		<path id="path728" d="M1.37232 0L0 0L0 1.3913L1.37232 1.3913L1.37232 0Z" fill="rgb(235.875,217.098,121.125)" fill-rule="nonzero" transform="matrix(1,0,0,-1,16.4949,2.78259)" />
		<path id="path730" d="M1.37232 0L0 0L0 1.3913L1.37232 1.3913L1.37232 0Z" fill="rgb(235.875,217.098,121.125)" fill-rule="nonzero" transform="matrix(1,0,0,-1,6.88867,2.78259)" />
		<path id="path732" d="M1.37232 0L0 0L0 1.3913L1.37232 1.3913L1.37232 0Z" fill="rgb(235.875,217.098,121.125)" fill-rule="nonzero" transform="matrix(1,0,0,-1,5.51636,2.78259)" />
		<path id="path734" d="M1.37232 0L0 0L0 1.3913L1.37232 1.3913L1.37232 0Z" fill="rgb(235.875,217.098,121.125)" fill-rule="nonzero" transform="matrix(1,0,0,-1,4.14404,2.78259)" />
		<path id="path736" d="M1.37232 0L0 0L0 1.3913L1.37232 1.3913L1.37232 0Z" fill="rgb(235.875,217.098,121.125)" fill-rule="nonzero" transform="matrix(1,0,0,-1,42.5686,1.3913)" />
		<path id="path738" d="M1.37232 0L0 0L0 1.3913L1.37232 1.3913L1.37232 0Z" fill="rgb(235.875,217.098,121.125)" fill-rule="nonzero" transform="matrix(1,0,0,-1,41.1963,1.3913)" />
		<path id="path740" d="M1.37232 0L0 0L0 1.3913L1.37232 1.3913L1.37232 0Z" fill="rgb(235.875,217.098,121.125)" fill-rule="nonzero" transform="matrix(1,0,0,-1,35.707,1.3913)" />
		<path id="path742" d="M1.37232 0L0 0L0 1.3913L1.37232 1.3913L1.37232 0Z" fill="rgb(235.875,217.098,121.125)" fill-rule="nonzero" transform="matrix(1,0,0,-1,34.3347,1.3913)" />
		<path id="path744" d="M1.37232 0L0 0L0 1.3913L1.37232 1.3913L1.37232 0Z" fill="rgb(235.875,217.098,121.125)" fill-rule="nonzero" transform="matrix(1,0,0,-1,32.9624,1.3913)" />
		<path id="path746" d="M1.37232 0L0 0L0 1.3913L1.37232 1.3913L1.37232 0Z" fill="rgb(235.875,217.098,121.125)" fill-rule="nonzero" transform="matrix(1,0,0,-1,24.7285,1.3913)" />
		<path id="path748" d="M1.37232 0L0 0L0 1.3913L1.37232 1.3913L1.37232 0Z" fill="rgb(235.875,217.098,121.125)" fill-rule="nonzero" transform="matrix(1,0,0,-1,16.4949,1.3913)" />
		<path id="path750" d="M1.37232 0L0 0L0 1.3913L1.37232 1.3913L1.37232 0Z" fill="rgb(235.875,217.098,121.125)" fill-rule="nonzero" transform="matrix(1,0,0,-1,8.26099,1.3913)" />
		<path id="path752" d="M1.37232 0L0 0L0 1.3913L1.37232 1.3913L1.37232 0Z" fill="rgb(235.875,217.098,121.125)" fill-rule="nonzero" transform="matrix(1,0,0,-1,6.88867,1.3913)" />
		<path id="path754" d="M1.37232 0L0 0L0 1.3913L1.37232 1.3913L1.37232 0Z" fill="rgb(235.875,217.098,121.125)" fill-rule="nonzero" transform="matrix(1,0,0,-1,5.51636,1.3913)" />
		<path id="path756" d="M1.37232 0L0 0L0 1.3913L1.37232 1.3913L1.37232 0Z" fill="rgb(235.875,217.098,121.125)" fill-rule="nonzero" transform="matrix(1,0,0,-1,0.0270996,1.3913)" />
	</g>
</svg>
